<?xml version="1.0" standalone="no"?>
<!DOCTYPE svg PUBLIC "-//W3C//DTD SVG 20010904//EN"
 "http://www.w3.org/TR/2001/REC-SVG-20010904/DTD/svg10.dtd">
<svg version="1.0" xmlns="http://www.w3.org/2000/svg"
 width="102.000000pt" height="102.000000pt" viewBox="0 0 102.000000 102.000000"
 preserveAspectRatio="xMidYMid meet">
<metadata>
Created by potrace 1.14, written by Peter Selinger 2001-2017
</metadata>
<g transform="translate(0.000000,102.000000) scale(0.100000,-0.100000)"
fill="#000000" stroke="none">
<path d="M130 735 l0 -35 100 0 100 0 0 -163 c0 -224 -12 -256 -95 -257 -39 0
-77 18 -103 50 -11 13 -15 11 -36 -14 -32 -39 -21 -60 47 -92 100 -46 208 -20
249 60 20 37 22 60 26 264 l4 222 -146 0 -146 0 0 -35z"/>
<path d="M480 735 l0 -35 95 0 95 0 0 -245 0 -245 45 0 45 0 0 245 0 245 95 0
95 0 0 35 0 35 -235 0 -235 0 0 -35z"/>
</g>
</svg>
